<?xml version="1.0" encoding="UTF-8"?>
<svg xmlns="http://www.w3.org/2000/svg" xmlns:xlink="http://www.w3.org/1999/xlink" viewBox="0 0 26 26" version="1.1" width="52px" height="52px">
<g id="surface1">
<path style=" " d="M 3.90625 4 C 1.753906 4 0 5.753906 0 7.90625 L 0 18.09375 C 0 20.246094 1.753906 22 3.90625 22 L 22.09375 22 C 24.246094 22 26 20.246094 26 18.09375 L 26 7.90625 C 26 5.753906 24.246094 4 22.09375 4 Z M 15.96875 8.96875 C 16.816406 8.96875 17.6875 9.3125 17.6875 9.3125 L 17.40625 10.84375 C 17.40625 10.84375 16.71875 10.375 16.125 10.375 C 15.214844 10.375 14.90625 10.695313 14.90625 11.09375 C 14.90625 11.875 17.4375 11.992188 17.4375 13.75 C 17.4375 15.210938 15.625 16.21875 14.3125 16.21875 C 13 16.21875 12.3125 15.8125 12.3125 15.8125 L 12.625 14.375 C 12.625 14.375 13.316406 14.78125 14.375 14.78125 C 15.433594 14.78125 15.59375 14.316406 15.59375 14.125 C 15.59375 13.003906 13.0625 13.304688 13.0625 11.125 C 13.0625 9.917969 14.042969 8.96875 15.96875 8.96875 Z M 7.75 9.09375 L 9.71875 9.09375 L 6.9375 16 L 4.90625 16 L 3.4375 10.40625 C 3.4375 10.40625 4.984375 11.203125 5.9375 13.34375 C 5.976563 13.605469 6.09375 14.03125 6.09375 14.03125 Z M 10.4375 9.09375 L 12.3125 9.09375 L 11.1875 16 L 9.34375 16 Z M 20.40625 9.09375 L 22.3125 9.09375 L 23.75 16 L 22.0625 16 L 21.875 15.03125 L 19.59375 15.03125 L 19.21875 16 L 17.375 16 Z M 1.40625 9.125 L 4.25 9.125 C 4.976563 9.125 5.25 9.8125 5.25 9.8125 L 5.875 12.9375 C 5.035156 10.226563 1.40625 9.125 1.40625 9.125 Z M 21.09375 11.09375 L 20.09375 13.71875 L 21.625 13.71875 Z "/>
</g>
</svg>
