<?xml version="1.0" encoding="UTF-8"?>
<svg xmlns="http://www.w3.org/2000/svg" xmlns:xlink="http://www.w3.org/1999/xlink" viewBox="0 0 26 26" version="1.1" width="52px" height="52px">
<g id="surface1">
<path style=" " d="M 3.90625 4 C 1.753906 4 0 5.753906 0 7.90625 L 0 18.09375 C 0 20.246094 1.753906 22 3.90625 22 L 22.09375 22 C 24.246094 22 26 20.246094 26 18.09375 L 26 7.90625 C 26 5.753906 24.246094 4 22.09375 4 Z M 3.90625 6 L 22.09375 6 C 23.140625 6 24 6.859375 24 7.90625 L 24 18.09375 C 24 19.140625 23.140625 20 22.09375 20 L 3.90625 20 C 2.859375 20 2 19.140625 2 18.09375 L 2 7.90625 C 2 6.859375 2.859375 6 3.90625 6 Z M 9 7.1875 C 5.789063 7.1875 3.1875 9.789063 3.1875 13 C 3.1875 16.210938 5.789063 18.8125 9 18.8125 C 10.550781 18.8125 11.957031 18.207031 13 17.21875 C 14.042969 18.207031 15.449219 18.8125 17 18.8125 C 20.210938 18.8125 22.8125 16.210938 22.8125 13 C 22.8125 9.789063 20.210938 7.1875 17 7.1875 C 15.453125 7.1875 14.042969 7.796875 13 8.78125 C 11.957031 7.792969 10.550781 7.1875 9 7.1875 Z M 17 8.9375 C 19.234375 8.9375 21.0625 10.761719 21.0625 13 C 21.0625 15.238281 19.238281 17.0625 17 17.0625 C 15.867188 17.0625 14.832031 16.597656 14.09375 15.84375 C 14.5625 15.007813 14.8125 14.027344 14.8125 13 C 14.8125 11.972656 14.5625 10.992188 14.09375 10.15625 C 14.832031 9.402344 15.867188 8.9375 17 8.9375 Z "/>
</g>
</svg>
