<?xml version="1.0" encoding="UTF-8"?>
<svg xmlns="http://www.w3.org/2000/svg" xmlns:xlink="http://www.w3.org/1999/xlink" viewBox="0 0 26 26" version="1.1" width="52px" height="52px">
<g id="surface1">
<path style=" " d="M 3.90625 4 C 1.753906 4 0 5.753906 0 7.90625 L 0 18.09375 C 0 20.246094 1.753906 22 3.90625 22 L 22.09375 22 C 24.246094 22 26 20.246094 26 18.09375 L 26 7.90625 C 26 5.753906 24.246094 4 22.09375 4 Z M 3.90625 6 L 22.09375 6 C 23.140625 6 24 6.859375 24 7.90625 L 24 18.09375 C 24 19.140625 23.140625 20 22.09375 20 L 3.90625 20 C 2.859375 20 2 19.140625 2 18.09375 L 2 7.90625 C 2 6.859375 2.859375 6 3.90625 6 Z M 4.09375 10.21875 L 2.09375 14.84375 L 3.28125 14.84375 L 3.71875 13.8125 L 6 13.8125 L 6.4375 14.84375 L 8.71875 14.84375 L 8.71875 11.4375 L 10.25 14.84375 L 11.28125 14.84375 L 12.8125 11.46875 L 12.8125 14.84375 L 13.9375 14.84375 L 13.9375 10.21875 L 12.15625 10.21875 L 10.75 13.34375 L 9.375 10.21875 L 7.59375 10.21875 L 7.59375 14.6875 L 5.59375 10.21875 Z M 15.4375 10.21875 L 15.4375 14.84375 L 19.75 14.84375 L 21.125 13.3125 L 22.4375 14.875 L 23.90625 14.875 L 21.875 12.5 L 23.90625 10.25 L 22.46875 10.25 L 21.15625 11.6875 L 19.90625 10.21875 Z M 4.8125 11.21875 L 5.53125 12.8125 L 4.15625 12.8125 Z M 16.5625 11.21875 L 19.3125 11.25 L 20.40625 12.5 L 19.15625 13.875 L 16.5625 13.875 L 16.5625 12.96875 L 19.0625 12.96875 L 19.0625 12.09375 L 16.5625 12.09375 Z "/>
</g>
</svg>
